<?xml version="1.0" encoding="UTF-8" standalone="no"?>
<svg width="435px" height="452px" viewBox="0 0 435 452" version="1.1" xmlns="http://www.w3.org/2000/svg" xmlns:xlink="http://www.w3.org/1999/xlink" xmlns:sketch="http://www.bohemiancoding.com/sketch/ns">
    <!-- Generator: Sketch 3.1 (8751) - http://www.bohemiancoding.com/sketch -->
    <title>Babysitting</title>
    <desc>Created with Sketch.</desc>
    <defs></defs>
    <g id="Page-1" stroke="none" stroke-width="1" fill="none" fill-rule="evenodd" sketch:type="MSPage">
        <g id="Babysitting" sketch:type="MSLayerGroup" transform="translate(1.000000, 1.000000)">
            <g id="Page-1" sketch:type="MSShapeGroup">
                <g id="Your_Icon">
                    <ellipse id="Oval-1" stroke="#979797" fill="#7FA3C9" cx="216.5" cy="225" rx="216.5" ry="225"></ellipse>
                    <g id="noun_396" transform="translate(57.000000, 65.000000)" fill="#FFFFFF">
                        <rect id="Rectangle-path" x="158" y="237" width="161.660632" height="16.3488"></rect>
                        <path d="M263.380211,172.2624 C263.380211,159.0816 241.866105,159.0816 241.866105,172.2624 L241.866105,189.5872 L241.822316,189.5872 L209.027368,189.5872 C211.072,186.6528 213.12,183.7184 215.164632,180.7872 C218.327579,176.256 218.522947,172.1152 216.552421,168.512 C215.548632,166.6752 213.106526,164.7744 210.677895,163.44 C198.999579,157.0176 187.317895,150.592 175.642947,144.1696 C163.614316,137.5552 152.784842,155.2192 164.783158,161.8176 C172.658526,166.1472 180.533895,170.48 188.409263,174.8096 C183.646316,181.632 178.886737,188.4512 174.127158,195.2704 C173.776842,195.7728 167.962947,202.432 167.962947,210.0256 C167.962947,221.1648 177.744842,230.464 189.477053,230.464 L241.825684,230.464 C251.469474,230.464 259.792842,224.1696 262.443789,215.7344 C263.04,214.4928 263.380211,213.0432 263.380211,211.3888 L263.380211,172.2624 L263.380211,172.2624 Z" id="Shape"></path>
                        <ellipse id="Oval" cx="211.885895" cy="31.2416" rx="32.8858947" ry="31.2416"></ellipse>
                        <ellipse id="Oval" cx="293.279579" cy="209.0656" rx="24.2795789" ry="23.0656"></ellipse>
                        <path d="M231.437474,135.5904 C215.333053,126.5952 199.228632,117.6 183.124211,108.6016 L183.124211,69.0336 C183.582316,63.0976 182.315789,57.0496 179.280842,52.1312 C170.452211,37.8144 152.912842,35.2 138.071579,41.8656 C107.819789,55.456 77.5646316,69.0464 47.3094737,82.6368 C40.1987368,85.8336 35.6513684,92.0736 33.6842105,99.088 L33.6774737,99.088 L0,205.3536 L54.912,205.3536 L54.912,303.6512 C54.912,312.5632 62.7402105,320 72.1212632,320 C81.5056842,320 89.3338947,312.5632 89.3338947,303.6512 L89.3338947,205.3536 L143.952842,205.3536 L115.361684,115.1424 C129.192421,108.9312 143.019789,102.7168 156.850526,96.5056 L156.850526,107.664 C156.793263,115.2576 157.898105,122.9696 164.345263,126.5696 C182.362947,136.6368 200.384,146.704 218.405053,156.768 C232.788211,164.8032 245.770105,143.6 231.437474,135.5904 L231.437474,135.5904 L231.437474,135.5904 Z" id="Shape"></path>
                    </g>
                </g>
            </g>
        </g>
    </g>
</svg>