<?xml version="1.0" encoding="UTF-8" standalone="no"?>
<svg width="452px" height="452px" viewBox="0 0 452 452" version="1.1" xmlns="http://www.w3.org/2000/svg" xmlns:xlink="http://www.w3.org/1999/xlink" xmlns:sketch="http://www.bohemiancoding.com/sketch/ns">
    <!-- Generator: Sketch 3.1 (8751) - http://www.bohemiancoding.com/sketch -->
    <title>Bricolage</title>
    <desc>Created with Sketch.</desc>
    <defs></defs>
    <g id="Page-1" stroke="none" stroke-width="1" fill="none" fill-rule="evenodd" sketch:type="MSPage">
        <g id="Bricolage" sketch:type="MSLayerGroup" transform="translate(1.000000, 1.000000)">
            <g id="Page-1" sketch:type="MSShapeGroup">
                <g id="Your_Icon">
                    <circle id="Oval-1" stroke="#979797" fill="#605B99" cx="225" cy="225" r="225"></circle>
                    <path d="M339.958394,152.648669 L376.290992,188.884786 L213.827012,363.196253 C206.76234,370.546953 194.138472,370.546953 186.567504,363.196253 L166.899083,343.613913 C159.328115,336.76107 159.328115,324.519666 166.899083,317.178729 L339.958394,152.648669 L339.958394,152.648669 Z" id="Shape" fill="#FFFFFF" transform="translate(268.755925, 260.678973) scale(-1, 1) translate(-268.755925, -260.678973) "></path>
                    <path d="M253.54002,189.022286 L226.280513,215.95858 C220.738082,221.34714 212.15117,221.34714 206.102442,215.95858 L200.050362,209.597085 C195.507111,205.676061 193.475222,198.328616 196.013407,194.902194 C200.539893,191.967121 199.03777,183.152139 190.450858,175.310092 C178.356757,163.068688 162.705173,162.583848 156.656446,168.945343 C154.138378,170.907482 146.061115,179.227861 146.061115,179.227861 L108.715925,143.489601 L114.78477,137.609693 C114.78477,137.609693 116.286893,136.142156 119.31461,132.715735 C130.925885,121.45052 118.808314,108.721022 118.808314,108.721022 C86.0264928,77.382118 40.1111557,77.8734662 40.1111557,77.8734662 L39.6048598,66.6049972 C131.94183,43.586473 166.752187,82.7674244 179.379407,95.008828 C190.967213,106.267535 203.084785,118.01759 206.112501,120.962425 C212.667524,127.32392 206.112501,145.43547 215.691888,155.731005 C220.235139,160.133615 226.287219,162.095754 230.833823,162.095754 C235.890076,157.693144 243.947222,159.16068 247.984177,163.56329 L253.546726,169.443199 C259.082451,174.831759 259.082451,183.152139 253.54002,189.022286 L253.54002,189.022286 L253.54002,189.022286 Z" id="Shape" fill="#FFFFFF" transform="translate(148.651271, 139.747481) scale(-1, 1) translate(-148.651271, -139.747481) "></path>
                </g>
            </g>
        </g>
    </g>
</svg>