<?xml version="1.0" encoding="UTF-8" standalone="no"?>
<svg width="452px" height="452px" viewBox="0 0 452 452" version="1.1" xmlns="http://www.w3.org/2000/svg" xmlns:xlink="http://www.w3.org/1999/xlink" xmlns:sketch="http://www.bohemiancoding.com/sketch/ns">
    <!-- Generator: Sketch 3.1 (8751) - http://www.bohemiancoding.com/sketch -->
    <title>Your_Icon</title>
    <desc>Created with Sketch.</desc>
    <defs></defs>
    <g id="Page-1" stroke="none" stroke-width="1" fill="none" fill-rule="evenodd" sketch:type="MSPage">
        <g id="Your_Icon" sketch:type="MSLayerGroup" transform="translate(1.000000, 1.000000)">
            <circle id="Oval-1" stroke="#979797" fill="#F5E356" sketch:type="MSShapeGroup" cx="225" cy="225" r="225"></circle>
            <path d="M82.7123865,303.006281 C68.242708,301.684311 57.5698415,288.440053 58.8472736,273.431805 C60.1286484,258.423556 72.9147976,247.348475 87.348992,248.682723 C101.8029,250.021065 112.483652,263.265322 111.202277,278.261293 C109.916959,293.269542 97.1426382,304.344623 82.7123865,303.006281 M89.0522348,228.935027 C64.098939,226.634881 42.0553496,245.764566 39.8316715,271.671906 C37.6198215,297.583339 56.0519052,320.449738 81.0091437,322.75807 C105.96244,325.050031 128.009972,305.932624 130.217879,280.008913 C132.433672,254.09748 113.985817,231.239266 89.0522348,228.935027" id="Shape" fill="#FFFFFF" sketch:type="MSShapeGroup"></path>
            <path d="M84.9833769,231.669785 C86.248981,231.669785 87.5342985,231.731177 88.7999025,231.845775 C112.160351,234.002673 129.484538,255.493896 127.410682,279.751843 C126.468379,290.822831 121.587327,301.034334 113.678287,308.50367 C105.812617,315.927985 95.6523007,320.016679 85.0622308,320.016679 C83.8005694,320.016679 82.5191946,319.955287 81.261476,319.840689 C57.8970849,317.679698 40.5689549,296.184382 42.638868,271.926435 C43.5890567,260.863633 48.4661664,250.656223 56.3791486,243.182794 C64.2408759,235.762572 74.3972497,231.669785 84.9833769,231.669785 L84.9833769,231.669785 Z M85.0740589,306.039812 C92.3049554,306.039812 99.2440928,303.244439 104.617982,298.169384 C110.027355,293.057493 113.362872,286.079292 114.009473,278.515822 C115.428842,261.935943 103.581054,247.246931 87.6013242,245.769435 C86.7378748,245.687579 85.8665399,245.650744 85.0030904,245.650744 C77.7682511,245.650744 70.8212283,248.446118 65.4433968,253.521173 C60.0261384,258.633064 56.6906213,265.611265 56.0440198,273.174735 C55.3619342,281.212968 57.7314919,289.046562 62.7189969,295.230763 C67.7104446,301.419056 74.7244931,305.21307 82.4679396,305.921122 C83.3313891,305.998885 84.2066667,306.039812 85.0740589,306.039812 L85.0740589,306.039812 Z M84.9833769,228.747535 C61.745152,228.747535 41.9331262,247.181447 39.8316715,271.672682 C37.6198215,297.584115 56.0519052,320.450515 81.0091437,322.758846 C82.3693723,322.88163 83.7217156,322.943022 85.0622308,322.943022 C108.308341,322.943022 128.128252,304.521389 130.217879,280.009689 C132.433672,254.098256 113.985817,231.23595 89.0522348,228.935803 C87.6880635,228.808927 86.3278348,228.747535 84.9833769,228.747535 L84.9833769,228.747535 L84.9833769,228.747535 Z M85.0740589,303.11347 C84.2934059,303.11347 83.5088102,303.076635 82.7123865,303.007058 C68.242708,301.685087 57.5698415,288.44083 58.8472736,273.432581 C60.05768,259.246982 71.5506263,248.572994 84.9991477,248.572994 C85.775858,248.572994 86.5604536,248.609829 87.348992,248.679407 C101.8029,250.017748 112.483652,263.262006 111.202277,278.257976 C109.987928,292.447668 98.5107522,303.11347 85.0740589,303.11347 L85.0740589,303.11347 L85.0740589,303.11347 Z" id="Shape" fill="#FFFFFF" sketch:type="MSShapeGroup"></path>
            <path d="M354.737354,303.006281 C340.283446,301.684311 329.602695,288.440053 330.888012,273.431805 C332.177272,258.423556 344.943708,247.348475 359.397616,248.682723 C373.843638,250.021065 384.512562,263.265322 383.250901,278.261293 C381.96164,293.269542 369.187319,304.344623 354.737354,303.006281 M361.096916,228.935027 C336.135735,226.634881 314.080317,245.764566 311.880295,271.671906 C309.648732,297.583339 328.100529,320.445646 353.049882,322.75807 C377.999235,325.050031 400.054653,305.932624 402.26256,280.008913 C404.47441,254.09748 386.034441,231.239266 361.096916,228.935027" id="Shape" fill="#FFFFFF" sketch:type="MSShapeGroup"></path>
            <path d="M357.032001,231.669785 C358.297605,231.669785 359.582922,231.731177 360.852469,231.845775 C384.208975,234.002673 401.529219,255.489804 399.459306,279.751843 C398.517003,290.822831 393.635951,301.034334 385.722968,308.50367 C377.857298,315.927985 367.693039,320.016679 357.102969,320.016679 C355.841308,320.016679 354.559933,319.955287 353.302214,319.840689 C341.978804,318.792936 331.727805,313.234932 324.433826,304.18578 C317.135903,295.136629 313.67422,283.676826 314.687492,271.926435 C315.625852,260.863633 320.502962,250.660315 328.415944,243.186887 C336.281614,235.762572 346.445874,231.669785 357.032001,231.669785 L357.032001,231.669785 Z M357.106912,306.039812 C364.345694,306.039812 371.292717,303.244439 376.666605,298.169384 C382.075979,293.061586 385.411496,286.083384 386.06204,278.515822 C387.457753,261.935943 375.609964,247.246931 359.653891,245.773528 C358.790441,245.691672 357.915164,245.654837 357.051714,245.654837 C349.812932,245.654837 342.861967,248.450211 337.488078,253.525266 C332.074762,258.633064 328.739245,265.611265 328.088701,273.178828 C327.39873,281.217061 329.768288,289.050655 334.759735,295.238948 C339.74724,301.423149 346.757346,305.217162 354.492907,305.925214 C355.3603,305.998885 356.235577,306.039812 357.106912,306.039812 L357.106912,306.039812 Z M357.032001,228.747535 C333.78589,228.747535 313.962037,247.181447 311.880295,271.672682 C309.648732,297.584115 328.100529,320.446422 353.049882,322.758846 C354.410111,322.88163 355.762454,322.943022 357.102969,322.943022 C380.34908,322.943022 400.176876,304.521389 402.26256,280.009689 C404.47441,254.098256 386.034441,231.23595 361.096916,228.935803 C359.736687,228.808927 358.380401,228.747535 357.032001,228.747535 L357.032001,228.747535 L357.032001,228.747535 Z M357.106912,303.11347 C356.322316,303.11347 355.537721,303.076635 354.741297,303.007058 C340.287389,301.685087 329.606637,288.44083 330.891955,273.432581 C332.110247,259.246982 343.587422,248.572994 357.047772,248.572994 C357.828425,248.572994 358.609077,248.609829 359.401559,248.679407 C373.847581,250.017748 384.516505,263.262006 383.254843,278.257976 C382.036552,292.447668 370.559376,303.11347 357.106912,303.11347 L357.106912,303.11347 L357.106912,303.11347 Z" id="Shape" fill="#FFFFFF" sketch:type="MSShapeGroup"></path>
            <path d="M119.992731,156.495626 C119.992731,156.495626 117.603459,107.484505 142.406933,100.006983 C167.218292,92.5335548 212.819464,100.006983 212.819464,100.006983 C212.819464,100.006983 304.853717,128.243119 326.443896,173.930897 L119.992731,156.495626 L119.992731,156.495626 Z M399.683338,238.723804 C396.726319,228.04163 396.060004,210.90104 396.060004,210.90104 L372.85332,183.078275 L366.639638,179.280169 L354.85099,172.281504 C354.85099,172.281504 254.5292,91.9564718 216.005159,88.383469 C123.552981,79.8049881 93.3401346,92.5908538 85.0880809,97.8991982 C92.0863586,97.5840536 106.343132,97.6413526 102.991844,103.633192 C98.6115134,111.507714 76.607351,161.898104 76.607351,161.898104 L66.5850287,154.01949 L85.0486539,109.539084 C85.0486539,109.539084 91.0178892,105.708235 83.0615373,99.3562302 C82.592357,99.7655089 82.375509,100.011076 82.375509,100.011076 L52.7698369,166.887211 C56.771669,201.76594 47.9597531,210.495854 47.9597531,210.495854 C39.2621752,229.46592 38.8481925,251.374607 40.2833323,267.414239 C44.1274567,243.34456 65.264227,226.052536 89.0623141,228.233991 C114.027438,230.53823 132.479235,253.408722 130.2595,279.328341 C129.940142,283.122354 129.187088,286.77312 128.043707,290.235617 L313.488211,290.235617 C311.532636,284.215128 310.720442,277.703504 311.300018,270.991334 C313.503982,245.059437 335.5594,225.92566 360.524523,228.233991 C385.49359,230.53823 403.941445,253.408722 401.733537,279.328341 C401.406294,283.122354 400.649297,286.77312 399.529573,290.235617 L402.482649,290.235617 C421.6875,252.843918 399.683338,238.723804 399.683338,238.723804 L399.683338,238.723804 Z" id="Shape" fill="#FFFFFF" sketch:type="MSShapeGroup"></path>
            <rect id="Rectangle-path" fill="#FFFFFF" sketch:type="MSShapeGroup" x="130.33361" y="269.675402" width="180.859154" height="2.92224972"></rect>
        </g>
    </g>
</svg>