<?xml version="1.0" encoding="UTF-8" standalone="no"?>
<svg width="452px" height="452px" viewBox="0 0 452 452" version="1.1" xmlns="http://www.w3.org/2000/svg" xmlns:xlink="http://www.w3.org/1999/xlink" xmlns:sketch="http://www.bohemiancoding.com/sketch/ns">
    <!-- Generator: Sketch 3.1 (8751) - http://www.bohemiancoding.com/sketch -->
    <title>Oval 1 + Shape</title>
    <desc>Created with Sketch.</desc>
    <defs></defs>
    <g id="Page-1" stroke="none" stroke-width="1" fill="none" fill-rule="evenodd" sketch:type="MSPage">
        <g id="Oval-1-+-Shape" sketch:type="MSLayerGroup" transform="translate(1.000000, 1.000000)">
            <circle id="Oval-1" stroke="#979797" fill="#3D789E" sketch:type="MSShapeGroup" cx="225" cy="225" r="225"></circle>
            <path d="M110,382 L117.44147,382 L117.44147,331.196224 L110,331.196224 L110,382 L110,382 Z M234.319945,210.869694 C237.26108,210.869694 239.652335,213.122398 239.677659,215.898112 L244.622962,215.898112 C244.601256,210.541531 239.99601,206.186531 234.316327,206.186531 C228.651114,206.186531 224.031397,210.541531 224.013309,215.898112 L228.969466,215.898112 C228.991172,213.122398 231.382427,210.869694 234.319945,210.869694 L234.319945,210.869694 Z M173.250689,54.0247449 C173.250689,50.1483163 169.922467,47 165.816454,47 C161.714058,47 158.382219,50.1483163 158.382219,54.0247449 L158.382219,261.707653 L173.250689,261.707653 L173.250689,54.0247449 L173.250689,54.0247449 Z M290.584985,214.154745 C290.584985,209.030612 294.998496,204.860204 300.428563,204.860204 C304.51287,204.860204 308.217326,207.304337 309.653526,210.944898 L310.550699,213.245459 L312.945572,212.288316 C313.690804,211.994337 314.479448,211.843929 315.325974,211.843929 C318.050051,211.843929 320.300219,213.566786 321.088863,215.901531 L326.236754,215.901531 C325.335963,210.948316 320.813923,207.160765 315.325974,207.160765 C314.631389,207.160765 313.965744,207.215459 313.310953,207.331684 C310.720728,202.98352 305.793512,200.183878 300.424945,200.183878 C292.267184,200.183878 285.62521,206.449745 285.62521,214.158163 L285.62521,215.898112 L290.581367,215.898112 L290.581367,214.154745 L290.584985,214.154745 Z M266.209376,209.420306 C271.635825,209.420306 276.056572,205.253316 276.056572,200.13602 C276.056572,195.015306 271.635825,190.844898 266.209376,190.844898 C260.801015,190.844898 256.387504,195.015306 256.387504,200.13602 C256.387504,205.253316 260.801015,209.420306 266.209376,209.420306 L266.209376,209.420306 Z M266.209376,195.528061 C268.911748,195.528061 271.096798,197.592755 271.096798,200.13602 C271.096798,202.675867 268.911748,204.737143 266.209376,204.737143 C263.52871,204.737143 261.347278,202.672449 261.347278,200.13602 C261.347278,197.592755 263.52871,195.528061 266.209376,195.528061 L266.209376,195.528061 Z M245.093255,187.669235 C251.340906,187.669235 256.441768,182.859592 256.441768,176.945816 C256.441768,171.038878 251.340906,166.232653 245.093255,166.232653 C238.838368,166.232653 233.744741,171.042296 233.744741,176.945816 C233.744741,182.86301 238.83475,187.669235 245.093255,187.669235 L245.093255,187.669235 Z M245.093255,170.912398 C248.613211,170.912398 251.489229,173.619745 251.489229,176.949235 C251.489229,180.275306 248.613211,182.992908 245.093255,182.992908 C241.562445,182.992908 238.700898,180.278724 238.700898,176.949235 C238.700898,173.619745 241.562445,170.912398 245.093255,170.912398 L245.093255,170.912398 Z M154.652439,382 L162.097527,382 L162.097527,331.196224 L154.652439,331.196224 L154.652439,382 L154.652439,382 Z M193.54199,268.735816 L138.094535,268.735816 C122.574891,268.735816 110,280.624898 110,295.279439 L110,324.161224 L221.625672,324.161224 L221.625672,295.279439 C221.629289,280.624898 209.058016,268.735816 193.54199,268.735816 L193.54199,268.735816 Z M214.184202,382 L221.629289,382 L221.629289,331.196224 L214.184202,331.196224 L214.184202,382 L214.184202,382 Z M203.711155,222.929694 C199.605142,222.929694 196.284155,226.074592 196.284155,229.957857 C196.284155,233.830867 199.605142,236.979184 203.711155,236.979184 L208.088491,236.979184 L209.955189,265.245663 C221.455643,270.875714 229.3457,282.217857 229.3457,295.282857 L229.3457,382 L321.682155,382 C327.14478,382 331.858555,377.815918 332.205848,372.654184 L341.2029,236.979184 L345.565765,236.979184 C349.66816,236.979184 353,233.830867 353,229.957857 C353,226.074592 349.66816,222.929694 345.565765,222.929694 L203.711155,222.929694 L203.711155,222.929694 Z M274.642078,277.585969 C246.46072,277.585969 221.734201,261.437602 211.651859,236.975765 L222.436021,236.975765 C231.852719,255.923776 251.926963,268.22648 274.642078,268.22648 C297.321017,268.22648 317.413348,255.916939 326.837281,236.975765 L337.639532,236.975765 C327.528249,261.430765 302.780024,277.585969 274.642078,277.585969 L274.642078,277.585969 Z M199.297643,382 L206.739114,382 L206.739114,331.196224 L199.297643,331.196224 L199.297643,382 L199.297643,382 Z M139.765881,382 L147.210969,382 L147.210969,331.196224 L139.765881,331.196224 L139.765881,382 L139.765881,382 Z M124.886558,382 L132.324411,382 L132.324411,331.196224 L124.886558,331.196224 L124.886558,382 L124.886558,382 Z M184.41832,382 L191.863408,382 L191.863408,331.196224 L184.41832,331.196224 L184.41832,382 L184.41832,382 Z M169.531762,382 L176.97685,382 L176.97685,331.196224 L169.531762,331.196224 L169.531762,382 L169.531762,382 Z" id="Shape" fill="#FFFFFF" sketch:type="MSShapeGroup"></path>
        </g>
    </g>
</svg>