<?xml version="1.0" encoding="UTF-8" standalone="no"?>
<svg width="452px" height="452px" viewBox="0 0 452 452" version="1.1" xmlns="http://www.w3.org/2000/svg" xmlns:xlink="http://www.w3.org/1999/xlink" xmlns:sketch="http://www.bohemiancoding.com/sketch/ns">
    <!-- Generator: Sketch 3.1 (8751) - http://www.bohemiancoding.com/sketch -->
    <title>Group</title>
    <desc>Created with Sketch.</desc>
    <defs></defs>
    <g id="Page-1" stroke="none" stroke-width="1" fill="none" fill-rule="evenodd" sketch:type="MSPage">
        <g id="Group" sketch:type="MSLayerGroup" transform="translate(1.000000, 1.000000)">
            <circle id="Oval-1" stroke="#979797" fill="#6AC2A0" sketch:type="MSShapeGroup" cx="225" cy="225" r="225"></circle>
            <path d="M354.732176,367.88594 C332.017658,367.88594 313.555662,348.69004 313.555662,325.086221 C313.555662,301.486099 332.017658,282.293897 354.732176,282.293897 C377.450253,282.293897 395.922925,301.486099 395.922925,325.086221 C395.922925,348.69004 377.450253,367.88594 354.732176,367.88594 L354.732176,367.88594 L354.732176,367.88594 Z M354.732176,299.700004 C341.266449,299.700004 330.305973,311.089595 330.305973,325.086221 C330.305973,339.086544 341.266449,350.476136 354.732176,350.476136 C368.208579,350.476136 379.165496,339.086544 379.165496,325.086221 C379.165496,311.089595 368.208579,299.700004 354.732176,299.700004 L354.732176,299.700004 L354.732176,299.700004 Z" id="Shape" fill="#FFFFFF" sketch:type="MSShapeGroup"></path>
            <path d="M302.951045,331.775757 C298.98677,331.775757 295.762682,328.432838 295.762682,324.302262 C295.762682,288.902079 323.480586,260.10638 357.543467,260.10638 C374.051794,260.10638 389.567272,266.784822 401.235908,278.906602 C404.040082,281.831657 404.040082,286.546504 401.235908,289.464162 C398.431735,292.378123 393.876732,292.378123 391.079675,289.464162 C382.122689,280.152801 370.215627,275.034881 357.543467,275.034881 C331.391345,275.034881 310.128734,297.141043 310.128734,324.302262 C310.139409,328.432838 306.91888,331.775757 302.951045,331.775757 L302.951045,331.775757 L302.951045,331.775757 Z" id="Shape" fill="#FFFFFF" sketch:type="MSShapeGroup"></path>
            <path d="M187.962846,103.335687 C186.784951,100.743445 186.02697,97.8553702 185.678227,94.6899512 C184.660469,85.4414546 186.991349,77.0989483 192.663751,69.6809219 C198.336153,62.2628955 205.627717,58.0250798 214.542,56.9637769 C222.139602,56.0577867 229.085981,57.6848712 235.377579,61.8561244 C241.669177,66.0347733 246.188594,71.6112359 248.950064,78.5966057 L240.477047,79.6024398 C240.761735,80.2532736 241.163856,82.9527548 241.68697,87.6934876 C242.355986,93.780263 240.836465,99.334538 237.092822,104.360011 C233.352738,109.381785 228.4312,112.247673 222.360235,112.965069 C214.976148,113.845174 208.631172,111.286214 203.350215,105.288188 C202.300429,103.809021 201.51398,102.647874 200.987307,101.789957 L187.962846,103.335687 L187.962846,103.335687 Z" id="Shape" fill="#FFFFFF" sketch:type="MSShapeGroup"></path>
            <path d="M322.448593,160.262555 C309.548682,160.880107 299.321278,169.58501 299.321278,180.260903 C299.321278,190.944192 309.548682,199.645397 322.448593,200.266647 L322.448593,160.262555 L322.448593,160.262555 Z" id="Shape" fill="#FFFFFF" sketch:type="MSShapeGroup"></path>
            <path d="M320.388166,240.265417 C319.103513,235.802029 301.808736,197.217937 296.542014,185.49923 C295.367677,182.87001 292.830398,181.187456 290.036901,181.187456 L277.435912,181.187456 C279.980308,179.290424 281.659966,176.206359 281.659966,172.700731 C281.652848,166.928279 277.151224,162.254109 271.606932,162.254109 L271.596256,162.254109 L235.786104,162.272598 L223.405749,126.850228 C223.117503,126.02929 222.722499,125.297102 222.281233,124.601893 C221.178068,122.279599 219.573141,120.286421 217.252937,118.973659 C211.982656,115.982042 204.107483,115.105636 199.050718,116.606991 C194.022422,118.097252 187.374964,121.085171 184.499619,130.980804 L168.720804,200.531273 C168.115843,203.445233 168.386296,207.875341 169.585543,211.295916 C171.507185,216.772535 177.485626,223.739415 184.691783,224.737854 L227.43408,228.709419 C225.825594,228.687232 223.683319,228.679836 220.996579,228.724211 L159.052099,228.724211 L159.052099,167.460779 L159.052099,166.380987 L159.052099,141.860083 L46.6609613,141.860083 L46.6609613,166.380987 L46.6609613,167.460779 L46.6609613,229.182753 L108.174852,229.182753 C104.794186,230.336504 102.278258,233.675725 102.392133,237.318176 C102.509567,241.164012 107.384843,249.081257 111.078666,254.535689 C84.3963133,270.643826 62.5322995,315.573547 62.5322995,315.573547 C62.5322995,315.573547 61.9486897,316.952871 61.9949515,318.557768 C62.1159437,322.680948 65.2083637,326.031263 69.1761982,326.031263 L83.6845941,326.031263 C84.4461337,348.925083 102.570063,367.329628 124.797054,367.329628 C147.024044,367.329628 165.147974,348.925083 165.913072,326.023867 L260.10555,326.023867 C260.756773,326.023867 276.183286,325.846367 286.108211,310.392762 C288.464001,307.07203 318.480758,264.501581 320.477131,256.166471 C322.224401,248.929643 322.20305,246.555578 320.388166,240.265417 L320.388166,240.265417 Z M60.2832668,156.015718 L145.429793,156.015718 L145.429793,166.380987 L60.2832668,166.380987 L60.2832668,156.015718 L60.2832668,156.015718 Z M60.2832668,180.536622 L97.2713137,180.536622 L97.2713137,193.697518 L108.979095,193.697518 L108.979095,180.536622 L145.429793,180.536622 L145.429793,215.030815 L60.2832668,215.030815 L60.2832668,180.536622 L60.2832668,180.536622 Z M124.797054,349.919823 C111.811737,349.919823 101.189328,339.328982 100.438464,326.023867 L149.155643,326.023867 C148.40478,339.328982 137.782371,349.919823 124.797054,349.919823 L124.797054,349.919823 Z M178.887713,305.178695 C178.243607,306.98328 176.599536,308.10375 174.845148,308.10375 C174.346944,308.10375 173.838065,308.015 173.34342,307.830104 C171.115739,306.968488 169.976989,304.383643 170.806141,302.065047 C170.85952,301.906037 176.834403,284.400086 167.468178,270.336898 C161.603612,261.532152 144.187843,261.539548 137.978093,262.279132 C135.615186,262.560174 133.472911,260.811058 133.202457,258.348243 C132.928446,255.889127 134.622337,253.666677 136.988804,253.385636 C138.109761,253.248813 164.57504,250.257196 174.553343,265.237467 C186.52446,283.198262 179.207987,304.287497 178.887713,305.178695 L178.887713,305.178695 Z M306.609282,252.283656 C304.808633,257.383086 284.407202,287.602484 274.432457,301.695255 C274.357727,301.791401 274.293672,301.902339 274.2225,302.002183 C268.663973,310.747762 260.354651,311.084273 260.098432,311.095367 L225.925235,311.095367 C215.559045,303.266871 204.093248,290.250195 206.214172,271.775389 C208.609107,250.867352 232.743505,239.274375 233.999689,233.446454 C234.569065,230.750671 233.248826,229.633899 232.09584,229.145774 L255.490051,231.32015 L236.391066,290.194726 C234.472983,298.145253 240.465658,304.62031 244.049164,305.86281 C250.458196,308.08526 260.81371,307.109009 264.642759,290.194726 C265.461237,286.59665 285.001487,224.490093 285.001487,224.490093 C287.880391,214.786752 279.97675,203.833515 269.215555,202.22492 L213.79754,192.743454 L215.171158,186.061314 C215.018138,185.850533 199.474191,153.316237 199.474191,153.316237 C198.420846,151.097486 199.296261,148.409098 201.431419,147.314514 C203.563018,146.212534 206.150117,147.12592 207.203461,149.340974 L221.708299,179.771153 C222.875518,182.10454 226.19213,183.184333 228.729409,183.184333 L263.646353,183.165843 C262.20868,184.530375 261.297679,186.475481 261.297679,188.657253 C261.297679,192.776736 264.51465,196.127051 268.482485,196.127051 L285.460546,196.127051 C295.371236,218.236911 305.70184,241.678023 306.619958,244.558702 C307.619923,248.019954 307.619923,248.019954 306.609282,252.283656 L306.609282,252.283656 Z" id="Shape" fill="#FFFFFF" sketch:type="MSShapeGroup"></path>
        </g>
    </g>
</svg>