<?xml version="1.0" encoding="UTF-8" standalone="no"?>
<svg width="452px" height="452px" viewBox="0 0 452 452" version="1.1" xmlns="http://www.w3.org/2000/svg" xmlns:xlink="http://www.w3.org/1999/xlink" xmlns:sketch="http://www.bohemiancoding.com/sketch/ns">
    <!-- Generator: Sketch 3.1 (8751) - http://www.bohemiancoding.com/sketch -->
    <title>Your_Icon</title>
    <desc>Created with Sketch.</desc>
    <defs></defs>
    <g id="Page-1" stroke="none" stroke-width="1" fill="none" fill-rule="evenodd" sketch:type="MSPage">
        <g id="Your_Icon" sketch:type="MSLayerGroup" transform="translate(1.000000, 1.000000)">
            <circle id="Oval-1" stroke="#979797" fill="#D685A8" sketch:type="MSShapeGroup" cx="225" cy="225" r="225"></circle>
            <path d="M373.365661,189.097057 L355.407471,105.134157 C353.282608,95.5392248 341.296728,79.5036821 316.96051,79.5036821 L226.048679,79.5036821 L135.133409,79.5036821 C110.807505,79.5036821 98.4296606,95.5392248 96.7173921,105.134157 L77.6795792,190.072322 C66.1613069,192.064695 53.0854892,201.878498 53.0854892,213.462585 L53.0854892,284.589326 C53.0854892,294.976057 66.8386501,303.775972 66.8386501,306.956043 L66.8386501,358.902575 C77.1535207,365.70368 85.1784901,370.496318 95.424595,370.496318 C105.240914,370.496318 114.974713,365.298124 125.289584,358.902575 L125.289584,308.954853 L168.852721,311.249783 L226.048679,311.249783 L283.244636,311.249783 L328.148706,308.954853 L328.148706,358.902575 C338.463577,365.294905 348.410551,370.496318 358.233746,370.496318 C368.050064,370.496318 376.284769,365.706898 386.59964,358.902575 L386.59964,306.956043 C386.59964,303.775972 396.914511,294.972838 396.914511,284.589326 L396.914511,213.462585 C396.914511,201.878498 384.471338,191.08943 373.365661,189.097057 L373.365661,189.097057 Z M325.504661,175.919716 L226.04524,171.909221 L126.599572,175.919716 C108.662012,176.705078 99.701828,171.519759 102.273669,155.928396 L107.389845,131.588618 C113.365593,104.409951 143.680998,102.034553 174.408998,102.034553 L226.048679,102.034553 L277.268888,102.034553 C308.426674,102.034553 338.728325,104.409951 344.700636,131.588618 L349.400778,156.539949 C351.962304,172.128093 342.998682,176.705078 325.504661,175.919716 L325.504661,175.919716 Z" id="Shape" fill="#FFFFFF" sketch:type="MSShapeGroup"></path>
            <path d="M141.827192,132.286801 C141.827192,139.068593 145.6712,145.464142 150.797691,149.059425 C150.797691,149.461762 151.227477,150.668773 150.371343,151.058235 C146.957121,155.06873 124.343486,159.85815 123.04725,165.838487 C122.631217,167.447835 121.775083,169.842544 122.201431,169.842544 C123.487352,169.842544 162.749188,168.246071 164.035108,168.246071 C165.307276,168.246071 197.750982,167.045498 199.023149,167.045498 C199.463251,166.643161 199.463251,166.253699 198.607116,164.248451 C195.62268,158.258458 177.258772,154.264056 172.998731,151.46701 C172.142596,150.668773 172.142596,149.461762 172.568944,149.059425 C177.698873,145.464142 180.683309,139.068593 180.683309,132.286801 C180.683309,120.693059 172.142596,111.503682 161.463267,111.503682 C150.371343,111.503682 141.827192,120.693059 141.827192,132.286801" id="Shape" fill="#FFFFFF" sketch:type="MSShapeGroup"></path>
            <path d="M306.59691,132.286801 C306.59691,139.068593 302.752902,145.464142 297.636726,149.059425 C297.636726,149.461762 297.20694,150.668773 297.636726,151.46701 C301.480734,155.06873 324.104684,159.85815 325.376851,165.838487 C325.806638,167.447835 326.232986,169.842544 325.806638,169.842544 C324.960818,169.842544 285.258881,168.246071 284.413062,168.246071 C283.116826,168.246071 250.683435,167.045498 249.397514,167.045498 C248.981481,166.643161 248.981481,166.253699 249.397514,164.248451 C252.385388,158.258458 271.165329,154.264056 275.439124,151.46701 C276.295258,150.668773 276.295258,149.461762 275.865472,149.059425 C270.749296,145.464142 267.321321,139.477368 267.321321,132.286801 C267.321321,120.693059 276.295258,111.503682 286.960835,111.503682 C298.063074,111.503682 306.59691,120.693059 306.59691,132.286801" id="Shape" fill="#FFFFFF" sketch:type="MSShapeGroup"></path>
        </g>
    </g>
</svg>