<?xml version="1.0" encoding="UTF-8" standalone="no"?>
<svg width="452px" height="452px" viewBox="0 0 452 452" version="1.1" xmlns="http://www.w3.org/2000/svg" xmlns:xlink="http://www.w3.org/1999/xlink" xmlns:sketch="http://www.bohemiancoding.com/sketch/ns">
    <!-- Generator: Sketch 3.1 (8751) - http://www.bohemiancoding.com/sketch -->
    <title>Oval 1 + noun_5075_cc 2</title>
    <desc>Created with Sketch.</desc>
    <defs>
        <filter x="-50%" y="-50%" width="200%" height="200%" filterUnits="objectBoundingBox" id="filter-1">
            <feOffset dx="0" dy="0" in="SourceAlpha" result="shadowOffsetOuter1"></feOffset>
            <feGaussianBlur stdDeviation="0" in="shadowOffsetOuter1" result="shadowBlurOuter1"></feGaussianBlur>
            <feColorMatrix values="0 0 0 0 0   0 0 0 0 0   0 0 0 0 0  0 0 0 0.35 0" in="shadowBlurOuter1" type="matrix" result="shadowMatrixOuter1"></feColorMatrix>
            <feMerge>
                <feMergeNode in="shadowMatrixOuter1"></feMergeNode>
                <feMergeNode in="SourceGraphic"></feMergeNode>
            </feMerge>
        </filter>
        <filter x="-50%" y="-50%" width="200%" height="200%" filterUnits="objectBoundingBox" id="filter-2">
            <feOffset dx="0" dy="0" in="SourceAlpha" result="shadowOffsetOuter1"></feOffset>
            <feGaussianBlur stdDeviation="0" in="shadowOffsetOuter1" result="shadowBlurOuter1"></feGaussianBlur>
            <feColorMatrix values="0 0 0 0 0   0 0 0 0 0   0 0 0 0 0  0 0 0 0.35 0" in="shadowBlurOuter1" type="matrix" result="shadowMatrixOuter1"></feColorMatrix>
            <feMerge>
                <feMergeNode in="shadowMatrixOuter1"></feMergeNode>
                <feMergeNode in="SourceGraphic"></feMergeNode>
            </feMerge>
        </filter>
        <filter x="-50%" y="-50%" width="200%" height="200%" filterUnits="objectBoundingBox" id="filter-3">
            <feOffset dx="0" dy="0" in="SourceAlpha" result="shadowOffsetOuter1"></feOffset>
            <feGaussianBlur stdDeviation="0" in="shadowOffsetOuter1" result="shadowBlurOuter1"></feGaussianBlur>
            <feColorMatrix values="0 0 0 0 0   0 0 0 0 0   0 0 0 0 0  0 0 0 0.35 0" in="shadowBlurOuter1" type="matrix" result="shadowMatrixOuter1"></feColorMatrix>
            <feMerge>
                <feMergeNode in="shadowMatrixOuter1"></feMergeNode>
                <feMergeNode in="SourceGraphic"></feMergeNode>
            </feMerge>
        </filter>
        <filter x="-50%" y="-50%" width="200%" height="200%" filterUnits="objectBoundingBox" id="filter-4">
            <feOffset dx="0" dy="0" in="SourceAlpha" result="shadowOffsetOuter1"></feOffset>
            <feGaussianBlur stdDeviation="0" in="shadowOffsetOuter1" result="shadowBlurOuter1"></feGaussianBlur>
            <feColorMatrix values="0 0 0 0 0   0 0 0 0 0   0 0 0 0 0  0 0 0 0.35 0" in="shadowBlurOuter1" type="matrix" result="shadowMatrixOuter1"></feColorMatrix>
            <feMerge>
                <feMergeNode in="shadowMatrixOuter1"></feMergeNode>
                <feMergeNode in="SourceGraphic"></feMergeNode>
            </feMerge>
        </filter>
        <filter x="-50%" y="-50%" width="200%" height="200%" filterUnits="objectBoundingBox" id="filter-5">
            <feOffset dx="0" dy="0" in="SourceAlpha" result="shadowOffsetOuter1"></feOffset>
            <feGaussianBlur stdDeviation="0" in="shadowOffsetOuter1" result="shadowBlurOuter1"></feGaussianBlur>
            <feColorMatrix values="0 0 0 0 0   0 0 0 0 0   0 0 0 0 0  0 0 0 0.35 0" in="shadowBlurOuter1" type="matrix" result="shadowMatrixOuter1"></feColorMatrix>
            <feMerge>
                <feMergeNode in="shadowMatrixOuter1"></feMergeNode>
                <feMergeNode in="SourceGraphic"></feMergeNode>
            </feMerge>
        </filter>
    </defs>
    <g id="Page-1" stroke="none" stroke-width="1" fill="none" fill-rule="evenodd" sketch:type="MSPage">
        <g id="Oval-1-+-noun_5075_cc-2" sketch:type="MSLayerGroup" transform="translate(1.000000, 1.000000)">
            <circle id="Oval-1" stroke="#979797" fill="#BCD867" sketch:type="MSShapeGroup" cx="225" cy="225" r="225"></circle>
            <g id="noun_5075_cc-2" transform="translate(68.000000, 65.000000)" sketch:type="MSShapeGroup">
                <path d="M310.09187,262.359853 C307.843119,253.709997 300.912426,247.21389 292.467194,246.381056 L292.467194,238.990135 L282.252047,238.990135 L282.252047,224.642144 L273.494686,224.642144 L271.550971,224.642144 L271.550971,219.486319 C271.550971,213.416313 264.989157,208.489033 256.891525,208.489033 L249.16632,208.489033 L249.16632,203.925875 L233.116479,203.925875 L233.116479,208.489033 L223.937034,208.489033 C215.839402,208.489033 209.277588,213.412439 209.277588,219.486319 L209.277588,224.642144 L208.933537,224.642144 C207.206184,221.05902 205.20217,217.626968 202.953419,215.074234 C200.77206,212.595099 197.927425,210.476214 194.809677,208.643978 C191.493301,199.858545 185.037895,190.464949 172.439213,184.515026 C159.578059,178.433399 147.961876,175.257008 136.732308,172.185205 C132.65689,171.069595 128.521174,169.934616 124.296785,168.656312 L124.339348,122.3546 L117.784628,122.350726 L117.742065,166.564542 C116.358764,166.091957 114.961275,165.600004 113.556692,165.088682 L81.4747453,140.54525 L77.7079098,146.406079 L100.138671,163.558592 C99.4753956,163.996314 98.925622,164.592856 98.5638355,165.34047 C97.1805343,168.183727 98.8369488,172.123227 102.277467,174.118155 C105.714439,176.113084 109.626698,175.427448 111.013546,172.57257 C111.098673,172.40213 111.141236,172.212321 111.201533,172.026386 L173.659356,219.803958 C155.875068,220.017008 141.510017,235.802123 141.510017,255.274951 C141.510017,274.883356 156.066602,290.769186 174.010502,290.769186 C189.762401,290.769186 202.893121,278.520711 205.868992,262.274632 L205.868992,275.646465 L271.49422,275.646465 C274.239541,284.292447 281.755477,290.509651 290.608605,290.509651 C299.827066,290.509651 307.584194,283.784999 310.042213,274.588959 L320.189969,274.588959 L320.189969,262.3676 L310.09187,262.3676 L310.09187,262.359853 Z M174.021142,262.499304 C170.364262,262.499304 167.402578,259.264808 167.402578,255.271077 C167.402578,251.285094 170.364262,248.050598 174.021142,248.050598 C177.674476,248.050598 180.632613,251.285094 180.632613,255.271077 C180.63616,259.264808 177.678023,262.499304 174.021142,262.499304 L174.021142,262.499304 Z M167.448688,199.138047 L167.448688,206.308169 L124.293238,173.300816 L124.293238,173.014166 C128.198404,174.17626 132.025537,175.226019 135.803013,176.264156 C147.387274,179.440548 158.336635,182.438751 170.917582,188.380927 C180.37014,192.843369 186.052316,199.327855 189.450271,205.866573 C178.841415,201.032261 167.448688,199.138047 167.448688,199.138047 L167.448688,199.138047 Z M243.533801,259.94657 L240.359302,259.94657 L240.359302,244.316401 L243.533801,244.316401 L243.533801,259.94657 L243.533801,259.94657 Z M250.964611,259.94657 L247.783019,259.94657 L247.783019,244.316401 L250.964611,244.316401 L250.964611,259.94657 L250.964611,259.94657 Z M257.845648,259.94657 L254.667602,259.94657 L254.667602,244.316401 L257.845648,244.316401 L257.845648,259.94657 L257.845648,259.94657 Z M265.198426,259.94657 L262.087772,259.94657 L262.087772,228.244636 L239.564791,228.244636 L239.564791,224.63827 L265.198426,224.63827 L265.198426,259.94657 L265.198426,259.94657 Z M290.612152,273.337771 C288.104475,273.337771 286.07918,271.122044 286.07918,268.391122 C286.07918,265.660201 288.104475,263.444474 290.612152,263.444474 C293.112735,263.444474 295.145124,265.660201 295.145124,268.391122 C295.145124,271.122044 293.116282,273.337771 290.612152,273.337771 L290.612152,273.337771 Z" id="Shape" fill="#FFFFFF" filter="url(#filter-1)"></path>
                <g id="Group" transform="translate(-0.482127, 0.331766)">
                    <path id="Shape" fill="white" filter="url(#filter-2)" d="M113.677033,129.111609 L114.120399,129.111609 L114.109758,129.088367 C113.960787,129.096114 113.822457,129.111609 113.677033,129.111609 L113.677033,129.111609 Z"></path>
                    <path d="M11.6248738,253.157433 C1.34588179,263.689881 -2.76855254,277.146934 2.44188197,283.209193 C7.64522264,289.275325 20.2048881,285.653464 30.487427,275.113269 L52.2903821,252.773942 L44.1998436,219.782083 L11.6248738,253.157433 L11.6248738,253.157433 Z" id="Shape" fill="#FFFFFF" filter="url(#filter-3)"></path>
                    <path d="M114.106211,129.088367 L114.116852,129.111609 L124.778912,129.111609 L123.001902,125.117878 C125.740129,122.367588 127.463935,118.435836 127.463935,114.058613 C127.463935,105.741892 121.288737,99.0056181 113.673486,99.0056181 L97.7726161,99.0056181 L63.5696073,61.6481585 C60.0616973,54.8692748 52.2371782,50.1434245 43.1251249,50.1434245 C30.7463527,50.1434245 20.7120986,58.8591321 20.7120986,69.6085048 L20.7120986,168.762268 L36.6342501,168.762268 L56.7666029,250.794508 L56.8801045,250.759645 L64.01652,279.835245 C65.985064,287.869191 73.5542044,292.637651 80.9318108,290.472282 C88.2952295,288.31466 92.6756833,280.059917 90.7035923,272.029845 L83.5707238,242.950371 L65.3714457,168.758394 L65.5452451,168.758394 L65.5452451,106.659946 L86.106776,129.111609 L100.230636,129.111609 L113.673486,129.111609 C113.822457,129.111609 113.960787,129.096114 114.106211,129.088367 L114.106211,129.088367 Z" id="Shape" fill="#FFFFFF" filter="url(#filter-4)"></path>
                    <path d="M58.8521955,48.7644059 C68.5885078,48.7644059 76.8528457,41.9739013 79.9422184,32.4950851 C91.725107,30.2173801 100.230636,23.6980309 100.230636,16.0165872 L79.9244837,16.0165872 C76.8138295,6.57263387 68.5672262,-0.194628863 58.8486486,-0.194628863 C46.4663294,-0.194628863 36.4320753,10.7639208 36.4320753,24.2829517 C36.4356222,37.8019826 46.4698763,48.7644059 58.8521955,48.7644059 L58.8521955,48.7644059 Z" id="Shape" fill="#FFFFFF" filter="url(#filter-5)"></path>
                </g>
            </g>
        </g>
    </g>
</svg>