<?xml version="1.0" encoding="UTF-8" standalone="no"?>
<svg width="452px" height="452px" viewBox="0 0 452 452" version="1.1" xmlns="http://www.w3.org/2000/svg" xmlns:xlink="http://www.w3.org/1999/xlink" xmlns:sketch="http://www.bohemiancoding.com/sketch/ns">
    <!-- Generator: Sketch 3.1 (8751) - http://www.bohemiancoding.com/sketch -->
    <title>Your_Icon</title>
    <desc>Created with Sketch.</desc>
    <defs></defs>
    <g id="Page-1" stroke="none" stroke-width="1" fill="none" fill-rule="evenodd" sketch:type="MSPage">
        <g id="Your_Icon" sketch:type="MSLayerGroup" transform="translate(1.000000, 1.000000)">
            <circle id="Oval-1" stroke="#979797" fill="#8BB63E" sketch:type="MSShapeGroup" cx="225" cy="225" r="225"></circle>
            <g id="noun_3" transform="translate(98.000000, 52.000000)" fill="#FFFFFF" sketch:type="MSShapeGroup">
                <path d="M59.6498947,72.71536 C79.0474737,72.64962 94.7453421,56.398 94.7620526,36.36114 C94.7453421,16.30006 79.0474737,0.04844 59.6498947,0 C40.3124737,0.04844 24.6146053,16.30006 24.5343947,36.36114 C24.6146053,56.398 40.3124737,72.64962 59.6498947,72.71536 L59.6498947,72.71536 L59.6498947,72.71536 Z" id="Shape"></path>
                <path d="M33.0099737,116.76808 C26.7335,75.02664 84.9329211,62.34228 94.2473684,105.1321 L110.162474,186.97148 L169.321079,186.97148 C186.596421,187.02684 195.573316,201.33394 195.620105,214.56152 L195.620105,325.77284 C195.573316,352.87156 158.409105,352.74008 158.422474,325.41646 C158.409105,299.97162 158.422474,238.72616 158.422474,238.72616 L82.8307368,238.72616 C65.2345526,238.76422 54.1822105,226.24594 51.3481053,211.86618 L33.0099737,116.76808 L33.0099737,116.76808 Z" id="Shape"></path>
                <path d="M130.749842,246.07174 C150.334579,246.07174 150.241,276.12876 130.923632,276.16336 L76.7748421,276.16336 C50.3387895,276.12876 24.0297368,255.61442 17.0948684,223.862 L0.314157895,138.79444 C-3.18502632,119.51532 23.6721316,113.08664 27.6458947,132.88822 L43.7347895,214.1913 C48.1530526,234.99282 63.0120526,246.07174 80.9290789,246.07174 L130.749842,246.07174 L130.749842,246.07174 Z" id="Shape"></path>
                <path d="M204.095684,60.88908 L230.217579,47.82412 C233.970763,46.03184 231.524342,40.38166 227.620763,42.27082 L205.475974,52.47782 L205.475974,25.43446 C205.395763,21.10254 199.172763,21.2963 199.252974,25.43446 L199.252974,57.84428 C199.269684,60.33548 201.806342,62.09316 204.095684,60.88908 L204.095684,60.88908 L204.095684,60.88908 Z" id="Shape"></path>
                <path d="M204.269474,1.61236 C175.898342,1.557 152.941421,25.32374 152.897974,54.62994 C152.944763,83.94652 175.901684,107.70288 204.269474,107.63368 C232.530316,107.70288 255.473868,83.94652 255.473868,54.62994 C255.473868,25.32374 232.530316,1.557 204.269474,1.61236 L204.269474,1.61236 Z M204.269474,98.68266 C180.710974,98.6965 161.650947,78.9572 161.714447,54.62994 C161.650947,30.29576 180.710974,10.56684 204.269474,10.56338 C227.714342,10.56684 246.774368,30.29576 246.821158,54.62994 C246.771026,78.96066 227.711,98.6965 204.269474,98.68266 L204.269474,98.68266 Z" id="Shape"></path>
                <path d="M204.095684,60.88908 L230.217579,47.82412 C233.970763,46.03184 231.524342,40.38166 227.620763,42.27082 L205.475974,52.47782 L205.475974,25.43446 C205.395763,21.10254 199.172763,21.2963 199.252974,25.43446 L199.252974,57.84428 C199.269684,60.33548 201.806342,62.09316 204.095684,60.88908 L204.095684,60.88908 L204.095684,60.88908 Z" id="Shape"></path>
            </g>
        </g>
    </g>
</svg>