<?xml version="1.0" encoding="UTF-8" standalone="no"?>
<svg width="452px" height="452px" viewBox="0 0 452 452" version="1.1" xmlns="http://www.w3.org/2000/svg" xmlns:xlink="http://www.w3.org/1999/xlink" xmlns:sketch="http://www.bohemiancoding.com/sketch/ns">
    <!-- Generator: Sketch 3.1 (8751) - http://www.bohemiancoding.com/sketch -->
    <title>Your_Icon</title>
    <desc>Created with Sketch.</desc>
    <defs></defs>
    <g id="Page-1" stroke="none" stroke-width="1" fill="none" fill-rule="evenodd" sketch:type="MSPage">
        <g id="Your_Icon" sketch:type="MSLayerGroup" transform="translate(1.000000, 1.000000)">
            <circle id="Oval-1" stroke="#979797" fill="#E2AE3C" sketch:type="MSShapeGroup" cx="225" cy="225" r="225"></circle>
            <path d="M363.742558,349.482377 L349.868302,349.482377 L349.868302,247.036246 C355.093592,242.88156 358.42597,236.590931 358.42597,229.553161 L358.42597,163.283275 C358.42597,150.769406 347.893222,140.625876 334.895427,140.625876 L331.888679,140.625876 C318.890884,140.625876 308.358136,150.769406 308.358136,163.283275 L308.358136,229.561951 C308.358136,236.588001 311.690514,242.87863 316.915804,247.033316 C316.894501,284.02409 316.854938,361.240316 316.854938,361.445413 C316.854938,364.571683 319.487365,367.10903 322.743661,367.10903 L363.748645,367.10903 C368.800469,367.10903 372.902793,363.165301 372.902793,358.301564 C372.902793,353.426106 368.806555,349.482377 363.742558,349.482377 L363.742558,349.482377 Z" id="Shape" fill="#FFFFFF" sketch:type="MSShapeGroup"></path>
            <path d="M333.535087,130.710884 C347.068496,130.646425 357.957307,120.016522 357.881225,107.022139 C357.81123,94.0072467 346.785473,83.5121218 333.270322,83.579511 C319.764302,83.65569 308.857232,94.2709433 308.93027,107.279976 C309.000265,120.286078 320.01385,130.781203 333.535087,130.710884 L333.535087,130.710884 Z" id="Shape" fill="#FFFFFF" sketch:type="MSShapeGroup"></path>
            <path d="M286.309664,349.482377 L272.435408,349.482377 L272.435408,247.036246 C277.660698,242.88156 280.990033,236.590931 280.990033,229.553161 L280.990033,163.283275 C280.990033,150.769406 270.457284,140.625876 257.465576,140.625876 L254.458828,140.625876 C241.461033,140.625876 230.928285,150.769406 230.928285,163.283275 L230.928285,229.561951 C230.928285,236.588001 234.257619,242.87863 239.485953,247.033316 C239.461606,284.02409 239.425087,361.240316 239.425087,361.445413 C239.425087,364.571683 242.057513,367.10903 245.310766,367.10903 L286.312707,367.10903 C291.370618,367.10903 295.469899,363.165301 295.469899,358.301564 C295.466855,353.426106 291.370618,349.482377 286.309664,349.482377 L286.309664,349.482377 Z" id="Shape" fill="#FFFFFF" sketch:type="MSShapeGroup"></path>
            <path d="M256.105236,130.710884 C269.638645,130.646425 280.527456,120.016522 280.451374,107.022139 C280.375293,94.0072467 269.349535,83.5121218 255.837428,83.579511 C242.331408,83.65569 231.427381,94.2709433 231.497376,107.279976 C231.567371,120.286078 242.580955,130.781203 256.105236,130.710884 L256.105236,130.710884 Z" id="Shape" fill="#FFFFFF" sketch:type="MSShapeGroup"></path>
            <path d="M208.87677,349.482377 L194.999471,349.482377 L194.999471,247.036246 C200.224761,242.88156 203.557138,236.590931 203.557138,229.553161 L203.557138,163.283275 C203.557138,150.769406 193.02439,140.625876 180.029638,140.625876 L177.02289,140.625876 C164.025095,140.625876 153.492347,150.769406 153.492347,163.283275 L153.492347,229.561951 C153.492347,236.588001 156.824725,242.87863 162.050015,247.033316 C162.028712,284.02409 161.98915,361.240316 161.98915,361.445413 C161.98915,364.571683 164.621576,367.10903 167.877872,367.10903 L208.879813,367.10903 C213.937723,367.10903 218.037004,363.165301 218.037004,358.301564 C218.033961,353.426106 213.93468,349.482377 208.87677,349.482377 L208.87677,349.482377 Z" id="Shape" fill="#FFFFFF" sketch:type="MSShapeGroup"></path>
            <path d="M178.666255,130.710884 C192.199665,130.646425 203.088475,120.016522 203.012393,107.022139 C202.939355,94.0072467 191.913597,83.5121218 178.40149,83.579511 C164.89547,83.65569 153.9884,94.2709433 154.061438,107.279976 C154.131433,120.286078 165.145018,130.781203 178.666255,130.710884 L178.666255,130.710884 Z" id="Shape" fill="#FFFFFF" sketch:type="MSShapeGroup"></path>
            <path d="M131.446919,349.482377 L117.569619,349.482377 L117.569619,247.036246 C122.79491,242.88156 126.127287,236.590931 126.127287,229.553161 L126.127287,163.283275 C126.127287,150.769406 115.594539,140.625876 102.599787,140.625876 L99.589996,140.625876 C86.5922012,140.625876 76.0594529,150.769406 76.0594529,163.283275 L76.0594529,229.561951 C76.0594529,236.588001 79.3918306,242.87863 84.6171207,247.033316 C84.5958178,284.02409 84.5562553,361.240316 84.5562553,361.445413 C84.5562553,364.571683 87.1886816,367.10903 90.4449776,367.10903 L131.446919,367.10903 C136.504829,367.10903 140.60411,363.165301 140.60411,358.301564 C140.60411,353.426106 136.504829,349.482377 131.446919,349.482377 L131.446919,349.482377 Z" id="Shape" fill="#FFFFFF" sketch:type="MSShapeGroup"></path>
            <path d="M101.236404,130.710884 C114.769814,130.646425 125.658624,120.016522 125.582542,107.022139 C125.509504,94.0072467 114.483746,83.5121218 100.971639,83.579511 C87.4656189,83.65569 76.5585487,94.2709433 76.6315872,107.279976 C76.7015823,120.286078 87.7151668,130.781203 101.236404,130.710884 L101.236404,130.710884 Z" id="Shape" fill="#FFFFFF" sketch:type="MSShapeGroup"></path>
        </g>
    </g>
</svg>