<?xml version="1.0" encoding="UTF-8" standalone="no"?>
<svg width="452px" height="452px" viewBox="0 0 452 452" version="1.1" xmlns="http://www.w3.org/2000/svg" xmlns:xlink="http://www.w3.org/1999/xlink" xmlns:sketch="http://www.bohemiancoding.com/sketch/ns">
    <!-- Generator: Sketch 3.1 (8751) - http://www.bohemiancoding.com/sketch -->
    <title>Your_Icon</title>
    <desc>Created with Sketch.</desc>
    <defs></defs>
    <g id="Page-1" stroke="none" stroke-width="1" fill="none" fill-rule="evenodd" sketch:type="MSPage">
        <g id="Your_Icon" sketch:type="MSLayerGroup" transform="translate(1.000000, 1.000000)">
            <circle id="Oval-1" stroke="#979797" fill="#F57D61" sketch:type="MSShapeGroup" cx="225" cy="225" r="225"></circle>
            <path d="M136.685143,303.481526 L99.1593189,337.649204 C87.3172393,348.43492 82.582928,362.205567 88.5816827,368.420096 C94.5762367,374.622392 109.043822,370.919773 120.881701,360.129979 L145.998336,337.261816 L136.685143,303.481526 L136.685143,303.481526 Z" id="Shape" fill="#FFFFFF" sketch:type="MSShapeGroup"></path>
            <ellipse id="Oval" fill="#FFFFFF" sketch:type="MSShapeGroup" cx="138.811194" cy="93.7860124" rx="27.6245177" ry="26.8154499"></ellipse>
            <rect id="Rectangle-path" fill="#FFFFFF" sketch:type="MSShapeGroup" x="283.419831" y="230.081572" width="97.9077997" height="92.7282839"></rect>
            <path d="M380.021627,317.235862 L304.310453,352.896006 L231.758286,207.731286 C234.938298,204.889076 236.946285,200.823534 236.946285,196.289048 C236.946285,187.68902 229.758701,180.716025 220.899196,180.716025 L202.390433,180.716025 L160.983062,142.972137 L160.983062,142.972137 C156.66043,137.37743 150.140775,133.479076 142.667536,132.475944 C142.541512,132.455555 142.407086,132.443322 142.281062,132.42701 C141.932395,132.386233 141.579527,132.345455 141.23086,132.320988 C140.987213,132.300599 140.751967,132.280211 140.50412,132.267977 C140.021027,132.239433 139.533733,132.223122 139.042238,132.219044 C138.987628,132.219044 138.94562,132.214966 138.891009,132.214966 L138.870005,132.214966 L138.8448,132.214966 C123.566459,132.214966 111.186676,144.23217 111.186676,159.063038 L111.186676,250.335881 L131.237136,250.335881 L154.669247,337.755227 L154.799472,337.718527 L163.108671,367.800274 C165.402313,376.11078 174.211408,381.036733 182.797861,378.80619 C191.371712,376.575647 196.467293,368.032708 194.173651,359.718124 L185.872853,329.636376 L166.301286,250.335881 L166.511326,250.335881 L166.511326,188.639142 L188.826022,211.86615 L220.911798,211.86615 C221.084031,211.86615 221.243662,211.849839 221.415895,211.841683 L294.274721,357.630303 L299.15186,367.384341 L384.911368,326.9899 L380.021627,317.235862 L380.021627,317.235862 Z" id="Shape" fill="#FFFFFF" sketch:type="MSShapeGroup"></path>
            <ellipse id="Oval" fill="#FFFFFF" sketch:type="MSShapeGroup" cx="252.254032" cy="350.706241" rx="27.6455218" ry="26.8358388"></ellipse>
        </g>
    </g>
</svg>