<?xml version="1.0" encoding="UTF-8" standalone="no"?>
<svg width="452px" height="452px" viewBox="0 0 452 452" version="1.1" xmlns="http://www.w3.org/2000/svg" xmlns:xlink="http://www.w3.org/1999/xlink" xmlns:sketch="http://www.bohemiancoding.com/sketch/ns">
    <!-- Generator: Sketch 3.1 (8751) - http://www.bohemiancoding.com/sketch -->
    <title>Your_Icon</title>
    <desc>Created with Sketch.</desc>
    <defs></defs>
    <g id="Page-1" stroke="none" stroke-width="1" fill="none" fill-rule="evenodd" sketch:type="MSPage">
        <g id="Your_Icon" sketch:type="MSLayerGroup" transform="translate(1.000000, 1.000000)">
            <circle id="Oval-1" stroke="#979797" fill="#AA8FC0" sketch:type="MSShapeGroup" cx="225" cy="225" r="225"></circle>
            <g id="Group" transform="translate(90.415704, 50.000000)" fill="#FFFFFF" sketch:type="MSShapeGroup">
                <path d="M149.669515,57.101 C167.092841,54.0156235 178.427829,38.8568706 174.903002,23.2789294 C171.361085,7.67455294 154.313741,-2.41617647 136.877598,0.6692 C119.411547,3.76212941 108.132102,18.8604588 111.665473,34.4723882 C115.186028,50.039 132.207737,60.1863765 149.669515,57.101 L149.669515,57.101 Z" id="Shape"></path>
                <path d="M263.775635,306.835224 L263.775635,199.953553 C263.775635,168.880753 241.366282,145.447753 211.646651,145.447753 L209.988915,145.447753 C205.814665,145.447753 201.807044,145.957576 197.974596,146.833718 L142.709584,130.179482 L124.534296,66.9084941 C122.210046,57.5050824 111.063048,46.7383647 94.2763279,46.2889647 C88.7904157,46.1416824 79.7497691,48.3962353 75.2123557,52.6787529 L11.4920323,108.438341 C1.01581986,116.671047 0.520207852,128.423424 0.447575058,136.652353 L0.447575058,300.135765 C0.447575058,300.732447 0.5073903,301.264929 0.618475751,301.744541 L0.618475751,306.570871 C0.618475751,315.030165 8.37736721,321.884459 17.9435335,321.884459 C27.5096998,321.884459 35.2685912,315.026388 35.2685912,306.570871 L35.2685912,187.717788 L60.7584296,231.966694 L59.1989607,302.786847 C59.01097,311.771071 66.4750577,319.195612 75.8745958,319.369329 C85.2784065,319.512835 93.0757506,312.363976 93.2594688,303.360871 L94.8360277,231.449318 C94.9001155,228.605635 94.1310624,225.969659 92.8407621,223.616918 C92.4733256,222.555729 92.0076212,221.490765 91.4051963,220.448459 L53.9010393,155.364765 L99.3093533,115.636294 L114.758776,146.731753 C114.861316,146.947012 115.023672,147.120729 115.143303,147.328435 C115.352656,147.698529 115.583372,148.049741 115.826905,148.397176 C116.232794,148.986306 116.677136,149.533894 117.172748,150.058824 C117.467552,150.368494 117.758083,150.674388 118.078522,150.957624 C118.651039,151.471224 119.287644,151.928176 119.945612,152.358694 C120.270323,152.573953 120.5694,152.800541 120.902656,152.989365 C121.940878,153.563388 123.034642,154.061882 124.209584,154.409318 L167.614088,167.498565 C161.461663,176.452576 157.859931,187.581835 157.859931,199.953553 L157.859931,315.521106 C157.859931,318.991682 161.042956,321.812706 164.973672,321.812706 C168.900115,321.812706 172.083141,318.995459 172.083141,315.521106 L172.083141,241.8686 L249.552425,241.8686 L249.552425,313.863235 C249.552425,318.293035 253.85485,321.884459 259.157044,321.884459 C264.46351,321.884459 268.761663,318.293035 268.761663,313.863235 C268.761663,310.834506 266.745035,308.198529 263.775635,306.835224 L263.775635,306.835224 Z M181.568129,171.698 L190.190069,174.299988 C191.903349,174.813588 193.633718,175.055282 195.35127,175.055282 C201.98649,175.055282 208.190185,171.358118 210.450346,165.504588 C211.415935,162.997012 211.484296,160.432788 210.894688,158.027176 L211.646651,158.027176 C232.163279,158.027176 247.860508,174.284882 249.398614,196.384788 L172.236952,196.384788 C172.907737,186.747235 176.278753,178.242624 181.568129,171.698 L181.568129,171.698 Z M172.087413,229.296729 L172.087413,208.964212 L249.556697,208.964212 L249.556697,229.296729 L172.087413,229.296729 L172.087413,229.296729 Z" id="Shape"></path>
            </g>
        </g>
    </g>
</svg>