<?xml version="1.0" encoding="UTF-8" standalone="no"?>
<svg width="452px" height="452px" viewBox="0 0 452 452" version="1.1" xmlns="http://www.w3.org/2000/svg" xmlns:xlink="http://www.w3.org/1999/xlink" xmlns:sketch="http://www.bohemiancoding.com/sketch/ns">
    <!-- Generator: Sketch 3.1 (8751) - http://www.bohemiancoding.com/sketch -->
    <title>Your_Icon</title>
    <desc>Created with Sketch.</desc>
    <defs></defs>
    <g id="Page-1" stroke="none" stroke-width="1" fill="none" fill-rule="evenodd" sketch:type="MSPage">
        <g id="Your_Icon" sketch:type="MSLayerGroup" transform="translate(1.000000, 1.000000)">
            <circle id="Oval-1" stroke="#979797" fill="#FCAA4D" sketch:type="MSShapeGroup" cx="225" cy="225" r="225"></circle>
            <g id="noun_1051" transform="translate(41.000000, 114.000000)" fill="#FFFFFF" sketch:type="MSShapeGroup">
                <path d="M280.44,115.970149 L280.44,154.621343 L187.65126,204.405672 L92.25,154.621343 L92.25,115.970149 L188.21583,158.62397 L280.44,115.970149 Z" id="Shape"></path>
                <path d="M188.10144,148.153522 L367.52769,67.8193433 L188.09775,-0.182238806 L3.65679,67.8193433 L43.911,85.3540299 C42.99588,106.172328 40.4793,146.771821 37.55682,159.899642 C35.13987,170.757761 23.44257,186.231493 1.53504,205.89009 C0.69372,206.648866 -0.37269,207.768806 0.10701,208.802597 C0.60885,209.892716 2.38743,209.892716 2.97414,209.892716 C8.6346,209.892716 24.06249,205.200896 32.08086,200.406358 C33.25428,199.700597 34.32438,199.34606 35.26164,199.34606 C38.77821,199.34606 40.82247,204.544836 42.80031,209.574627 C44.67852,214.349284 46.44972,218.862179 49.69692,220.32009 C50.18769,220.538776 50.69322,220.651433 51.20244,220.651433 C52.33527,220.651433 53.40537,220.111343 54.45333,219.044418 C60.43113,212.964269 64.95138,188.726507 61.86654,166.582836 C59.05476,146.384149 60.46803,111.957582 62.63775,93.5150149 L188.10144,148.153522 L188.10144,148.153522 Z M185.69556,33.6810448 C193.97223,33.6810448 200.71017,39.7313731 200.71017,47.1667164 C200.71017,54.6020597 193.97223,60.6490746 185.69556,60.6490746 C177.41889,60.6490746 170.68464,54.6020597 170.68464,47.1667164 C170.68464,39.7313731 177.41889,33.6810448 185.69556,33.6810448 L185.69556,33.6810448 Z" id="Shape"></path>
            </g>
        </g>
    </g>
</svg>