<?xml version="1.0" encoding="UTF-8" standalone="no"?>
<svg width="452px" height="452px" viewBox="0 0 452 452" version="1.1" xmlns="http://www.w3.org/2000/svg" xmlns:xlink="http://www.w3.org/1999/xlink" xmlns:sketch="http://www.bohemiancoding.com/sketch/ns">
    <!-- Generator: Sketch 3.1 (8751) - http://www.bohemiancoding.com/sketch -->
    <title>Old</title>
    <desc>Created with Sketch.</desc>
    <defs></defs>
    <g id="Page-1" stroke="none" stroke-width="1" fill="none" fill-rule="evenodd" sketch:type="MSPage">
        <g id="Old" sketch:type="MSLayerGroup" transform="translate(1.000000, 1.000000)">
            <g id="Page-1" stroke="#979797" fill="#A04268" sketch:type="MSShapeGroup">
                <g id="Your_Icon">
                    <circle id="Oval-1" cx="225" cy="225" r="225"></circle>
                </g>
            </g>
            <g id="Group" transform="translate(36.000000, 50.000000)" fill="#FFFFFF" sketch:type="MSShapeGroup">
                <path d="M193.739286,63.9905 C211.710714,66.605 228.385714,54.4915 231.053571,36.9075 C233.721429,19.327 221.357143,2.968 203.367857,0.3535 C185.439286,-2.261 168.735714,9.8875 166.085714,27.44 C163.417857,45.031 175.814286,61.3795 193.739286,63.9905 L193.739286,63.9905 Z" id="Shape"></path>
                <path d="M226.921429,189.8155 C227.117857,188.5765 227.342857,187.3585 227.342857,186.0775 L228.025,117.7365 L252.607143,134.2355 L268.675,179.3155 C268.317857,179.7565 267.8,180.019 267.471429,180.488 C264.607143,184.681 263.567857,189.7105 264.564286,194.67 L265.067857,197.1795 L246.817857,200.704 L266.046429,312.3785 L348.45,296.5025 L320.457143,186.515 L302.903571,189.889 L302.4,187.383 C301.032143,180.523 295.810714,175.189 289.321429,173.117 L277.982143,122.1465 C277.121429,119.063 275.153571,116.3855 272.453571,114.576 L216.317857,76.9055 C216.207143,76.825 216.107143,76.762 215.992857,76.6885 L214.935714,75.978 L214.867857,76.0655 C210.703571,73.5805 205.903571,72.0405 200.682143,71.9845 C192.742857,71.785 185.439286,75.2115 180.25,80.6575 L180.2,80.6155 L179.632143,81.389 C178.510714,82.649 177.5,84.0035 176.639286,85.4525 L143.096429,130.886 L85.0714286,148.19 L86.0142857,151.8965 C77.4892857,153.8425 71,161.007 71,169.9495 L71,172.501 L52.375,172.501 L47.9178571,292.4495 L131.917857,292.4495 L127.446429,172.501 L109.553571,172.501 L109.553571,169.9495 C109.553571,168.2695 109,166.754 108.578571,165.2 L154.764286,156.1 C157.935714,155.309 160.732143,153.4715 162.653571,150.864 L172.267857,137.823 L171.810714,185.5525 C171.796429,186.3715 171.957143,187.145 172.025,187.9465 L145.753571,255.6225 C145.053571,257.411 144.664286,259.2975 144.614286,261.212 L146.307143,349.3525 L172.689286,350 L179.228571,265.027 L196.325,221.0145 L202.557143,264.691 C202.8,266.301 203.253571,267.855 203.921429,269.339 L245.253571,347.473 L268.028571,337.407 L236.6,257.5615 L226.921429,189.8155 L226.921429,189.8155 Z M295.078571,191.4045 L272.907143,195.678 L272.403571,193.165 C271.85,190.4175 272.435714,187.6595 273.932143,185.283 L288.521429,181.279 C291.532143,182.7875 293.875,185.4615 294.571429,188.902 L295.078571,191.4045 L295.078571,191.4045 Z M101.575,169.953 L101.575,172.5045 L78.9785714,172.5045 L78.9785714,169.953 C78.9785714,164.6505 82.8678571,160.426 87.925,159.334 L90.3678571,168.805 L100.907143,166.7155 C101.232143,167.762 101.575,168.805 101.575,169.953 L101.575,169.953 Z" id="Shape"></path>
                <path d="M66.2607143,161.168 L48.2678571,150.01 L-0.45,220.661 L42.0214286,246.631 L45.0785714,165.067 L65.0714286,165.067 L66.2607143,161.168 Z" id="Shape"></path>
            </g>
        </g>
    </g>
</svg>